<svg xmlns="http://www.w3.org/2000/svg" viewBox="0 0 32 32">
  <!-- Rangoli-inspired 8-petal motif in burgundy & gold -->
  <circle cx="16" cy="16" r="15" fill="#faf6f1" stroke="#b89a5a" stroke-width="1"/>
  <!-- Outer petals (burgundy) -->
  <path d="M16 3 L18 11 L16 9 L14 11 Z" fill="#7a3b3f"/>
  <path d="M16 29 L14 21 L16 23 L18 21 Z" fill="#7a3b3f"/>
  <path d="M3 16 L11 14 L9 16 L11 18 Z" fill="#7a3b3f"/>
  <path d="M29 16 L21 18 L23 16 L21 14 Z" fill="#7a3b3f"/>
  <!-- Diagonal petals (gold) -->
  <path d="M6.8 6.8 L12 10 L10 10 L10 12 Z" fill="#b89a5a"/>
  <path d="M25.2 6.8 L22 12 L22 10 L20 10 Z" fill="#b89a5a"/>
  <path d="M6.8 25.2 L10 20 L10 22 L12 22 Z" fill="#b89a5a"/>
  <path d="M25.2 25.2 L20 22 L22 22 L22 20 Z" fill="#b89a5a"/>
  <!-- Center dot -->
  <circle cx="16" cy="16" r="2.5" fill="#7a3b3f"/>
  <circle cx="16" cy="16" r="1" fill="#b89a5a"/>
</svg>
